<?xml version="1.0" encoding="utf-8"?>
<!-- Generator: Adobe Illustrator 25.2.0, SVG Export Plug-In . SVG Version: 6.00 Build 0)  -->
<svg version="1.1" id="Layer_1" xmlns="http://www.w3.org/2000/svg" xmlns:xlink="http://www.w3.org/1999/xlink" x="0px" y="0px"
	 viewBox="0 0 16.9 14.5" style="enable-background:new 0 0 16.9 14.5;" xml:space="preserve">
<style type="text/css">
	.st0{fill:#FFFFFF;}
</style>
<path id="polygon_dark" class="st0" d="M12.8,4.4c-0.3-0.2-0.7-0.2-1.1,0L9.3,5.8L7.6,6.8L5.2,8.2c-0.3,0.2-0.7,0.2-1.1,0L2.2,7.1
	C1.9,6.9,1.7,6.5,1.7,6.2V4c0-0.4,0.2-0.7,0.5-0.9L4.1,2c0.3-0.2,0.7-0.2,1.1,0L7,3.1C7.4,3.3,7.6,3.6,7.6,4v1.4l1.7-0.9V3
	c0-0.4-0.2-0.7-0.5-0.9l-3.5-2C4.8,0,4.4,0,4.1,0.1l-3.6,2C0.2,2.3,0,2.7,0,3v4.1C0,7.5,0.2,7.8,0.5,8l3.6,2c0.3,0.2,0.7,0.2,1.1,0
	l2.4-1.4l1.7-0.9l2.4-1.4c0.3-0.2,0.7-0.2,1.1,0l1.9,1.1c0.3,0.2,0.5,0.5,0.5,0.9v2.2c0,0.4-0.2,0.7-0.5,0.9l-1.9,1.1
	c-0.3,0.2-0.7,0.2-1.1,0l-1.9-1.1c-0.3-0.2-0.5-0.5-0.5-0.9V9.1L7.6,10v1.4c0,0.4,0.2,0.7,0.5,0.9l3.6,2c0.3,0.2,0.7,0.2,1.1,0
	l3.6-2c0.3-0.2,0.5-0.5,0.5-0.9V7.4c0-0.4-0.2-0.7-0.5-0.9L12.8,4.4z"/>
</svg>
